<?xml version="1.0" encoding="UTF-8"?>
<svg version="1.1" xmlns="http://www.w3.org/2000/svg" width="2248" height="2248">
<path d="M0 0 C1.90393597 -0.00697997 3.80787172 -0.01402093 5.71180725 -0.02111816 C11.76099946 -0.04038885 17.81015543 -0.04529373 23.859375 -0.046875 C25.40372538 -0.04775871 25.40372538 -0.04775871 26.97927475 -0.04866028 C57.13167189 -0.06084382 87.13929538 0.15938244 117.18444824 2.97851562 C119.62767419 3.20481997 122.07176428 3.41687701 124.51660156 3.625 C211.09593734 11.05153571 296.1642884 29.7622739 496.609375 105.203125 C497.79740723 105.76290039 498.98543945 106.32267578 500.20947266 106.89941406 C515.35861306 114.05086106 530.25762642 121.53466752 544.890625 129.70117188 C547.72085584 131.26471176 550.5678947 132.79277441 553.421875 134.3125 C568.11330984 142.14304558 582.41824001 150.50139753 596.609375 159.203125 C597.5777832 159.79287109 598.54619141 160.38261719 599.54394531 160.99023438 C628.12557873 178.419711 655.92127472 197.40719774 682.578125 217.66015625 C684.65872833 219.24061455 686.74341169 220.81559344 688.828125 222.390625 C697.98734537 229.33167839 706.96921521 236.46433412 715.84912109 243.75878906 C717.42833084 245.05457337 719.01266786 246.34410298 720.59765625 247.6328125 C727.10857919 252.92823752 733.52939147 258.32433501 739.91796875 263.76611328 C741.60230107 265.19711502 743.2928378 266.62049535 744.984375 268.04296875 C753.39661198 275.14743612 761.44325025 282.58997837 769.42993164 290.16723633 C770.940726 291.5785183 772.46716328 292.97316805 774.00561523 294.35424805 C783.84655871 303.20696491 793.15535838 312.59654572 802.50170898 321.96508789 C804.94325242 324.41235977 807.38930491 326.85506804 809.83668995 329.29649639 C812.20737518 331.66266992 814.57421223 334.03267747 816.94140625 336.40234375 C818.24160454 337.69950569 818.24160454 337.69950569 819.56806946 339.02287292 C823.89876505 343.37018308 828.09523461 347.77364718 832.08308411 352.4387207 C834.78170806 355.55835126 837.64731844 358.52243672 840.484375 361.515625 C845.40104508 366.73914002 850.05633205 372.0554169 854.53515625 377.66015625 C856.65025096 380.25323847 858.85455596 382.730974 861.109375 385.203125 C864.9244395 389.39969595 868.55202375 393.71089983 872.1171875 398.12109375 C873.91331109 400.34231869 875.71946036 402.55212877 877.5390625 404.75390625 C884.92944608 413.72548283 891.97145692 422.91891332 898.90625 432.24609375 C901.26500917 435.41590697 903.64601769 438.56537704 906.0625 441.69140625 C906.61873047 442.41142822 907.17496094 443.1314502 907.74804688 443.87329102 C908.75627457 445.17466855 909.76751325 446.47372521 910.78320312 447.76928711 C930.81807692 473.66810951 948.9045573 502.0654378 965.609375 530.203125 C966.14320801 531.09789551 966.67704102 531.99266602 967.22705078 532.91455078 C988.28440149 568.30470014 1007.73746726 604.62895802 1024.609375 642.203125 C1025.16854875 643.44257763 1025.72779455 644.68199775 1026.28710938 645.92138672 C1059.27346852 719.16919734 1083.72460297 795.75950307 1121.8125 1069.96875 C1121.81947671 1071.9218091 1121.82651769 1073.87486798 1121.83361816 1075.82792664 C1121.85290478 1082.03632893 1121.85779363 1088.24469601 1121.859375 1094.453125 C1121.85996414 1095.50869221 1121.86055328 1096.56425941 1121.86116028 1097.65181351 C1121.87304832 1127.79712094 1121.73752986 1157.80473341 1118.83398438 1187.83673096 C1118.60572405 1190.24158994 1118.39415808 1192.64739308 1118.1875 1195.05419922 C1113.38482719 1250.75772586 1103.86128223 1305.91216951 1090.609375 1360.203125 C1090.28171209 1361.55516943 1089.95407444 1362.90721999 1089.62646484 1364.25927734 C1072.52732235 1434.29403549 1047.36536322 1502.06559575 1016.609375 1567.203125 C1015.76971191 1568.98517334 1015.76971191 1568.98517334 1014.91308594 1570.80322266 C1007.76163894 1585.95236306 1000.27783248 1600.85137642 992.11132812 1615.484375 C990.54778824 1618.31460584 989.01972559 1621.1616447 987.5 1624.015625 C979.66945442 1638.70705984 971.31110247 1653.01199001 962.609375 1667.203125 C962.01962891 1668.1715332 961.42988281 1669.13994141 960.82226562 1670.13769531 C943.392789 1698.71932873 924.40530226 1726.51502472 904.15234375 1753.171875 C902.57188545 1755.25247833 900.99690656 1757.33716169 899.421875 1759.421875 C892.48082161 1768.58109537 885.34816588 1777.56296521 878.05371094 1786.44287109 C876.75792663 1788.02208084 875.46839702 1789.60641786 874.1796875 1791.19140625 C868.88426248 1797.70232919 863.48816499 1804.12314147 858.04638672 1810.51171875 C856.61538498 1812.19605107 855.19200465 1813.8865878 853.76953125 1815.578125 C847.75585507 1822.69840702 841.54117017 1829.58730851 835.12402344 1836.34692383 C831.87082378 1839.77494496 828.6778881 1843.2416367 825.54199219 1846.77758789 C820.52093113 1852.36349478 815.26537106 1857.69285215 809.94921875 1862.99609375 C808.94977047 1863.99621835 807.95047044 1864.99649111 806.9513092 1865.99690247 C804.8746732 1868.07499868 802.79627595 1870.15131192 800.71655273 1872.22631836 C798.07193612 1874.86522372 795.43185674 1877.50861566 792.79308224 1880.15336132 C790.73666635 1882.21341574 788.67784392 1884.27105189 786.61831856 1886.32799721 C785.64451623 1887.30114013 784.67143473 1888.27500501 783.69914055 1889.24965477 C778.71286113 1894.24537133 773.69617834 1899.1390481 768.32687378 1903.72373962 C765.39659084 1906.24776921 762.60951227 1908.92472427 759.796875 1911.578125 C754.75371682 1916.30185609 749.58246524 1920.77146791 744.1875 1925.09375 C741.5851121 1927.22297646 739.09361998 1929.43761857 736.609375 1931.703125 C732.41280405 1935.5181895 728.10160017 1939.14577375 723.69140625 1942.7109375 C721.47018131 1944.50706109 719.26037123 1946.31321036 717.05859375 1948.1328125 C708.08701717 1955.52319608 698.89358668 1962.56520692 689.56640625 1969.5 C686.39659303 1971.85875917 683.24712296 1974.23976769 680.12109375 1976.65625 C679.40107178 1977.21248047 678.6810498 1977.76871094 677.93920898 1978.34179688 C676.63783145 1979.35002457 675.33877479 1980.36126325 674.04321289 1981.37695312 C648.14439049 2001.41182692 619.7470622 2019.4983073 591.609375 2036.203125 C590.71460449 2036.73695801 589.81983398 2037.27079102 588.89794922 2037.82080078 C553.50779986 2058.87815149 517.18354198 2078.33121726 479.609375 2095.203125 C478.36992237 2095.76229875 477.13050225 2096.32154455 475.89111328 2096.88085938 C402.64330266 2129.86721852 326.05299693 2154.31835297 51.84375 2192.40625 C49.8906909 2192.41322671 47.93763202 2192.42026769 45.98457336 2192.42736816 C39.77617107 2192.44665478 33.56780399 2192.45154363 27.359375 2192.453125 C26.30380779 2192.45371414 25.24824059 2192.45430328 24.16068649 2192.45491028 C-5.98462094 2192.46679832 -35.99223341 2192.33127986 -66.02423096 2189.42773438 C-68.42908994 2189.19947405 -70.83489308 2188.98790808 -73.24169922 2188.78125 C-159.85030598 2181.31398848 -244.91082886 2162.65550055 -445.390625 2087.203125 C-446.57865723 2086.64334961 -447.76668945 2086.08357422 -448.99072266 2085.50683594 C-464.13986306 2078.35538894 -479.03887642 2070.87158248 -493.671875 2062.70507812 C-496.50210584 2061.14153824 -499.3491447 2059.61347559 -502.203125 2058.09375 C-516.89455984 2050.26320442 -531.19949001 2041.90485247 -545.390625 2033.203125 C-546.3590332 2032.61337891 -547.32744141 2032.02363281 -548.32519531 2031.41601562 C-576.90682873 2013.986539 -604.70252472 1994.99905226 -631.359375 1974.74609375 C-633.43997833 1973.16563545 -635.52466169 1971.59065656 -637.609375 1970.015625 C-646.76859537 1963.07457161 -655.75046521 1955.94191588 -664.63037109 1948.64746094 C-666.20958084 1947.35167663 -667.79391786 1946.06214702 -669.37890625 1944.7734375 C-675.88982919 1939.47801248 -682.31064147 1934.08191499 -688.69921875 1928.64013672 C-690.38355107 1927.20913498 -692.0740878 1925.78575465 -693.765625 1924.36328125 C-700.88590702 1918.34960507 -707.77480851 1912.13492017 -714.53442383 1905.71777344 C-717.96244496 1902.46457378 -721.4291367 1899.2716381 -724.96508789 1896.13574219 C-730.55099478 1891.11468113 -735.88035215 1885.85912106 -741.18359375 1880.54296875 C-742.18371835 1879.54352047 -743.18399111 1878.54422044 -744.18440247 1877.5450592 C-746.26249868 1875.4684232 -748.33881192 1873.39002595 -750.41381836 1871.31030273 C-753.05272372 1868.66568612 -755.69611566 1866.02560674 -758.34086132 1863.38683224 C-760.40091574 1861.33041635 -762.45855189 1859.27159392 -764.51549721 1857.21206856 C-765.48864013 1856.23826623 -766.46250501 1855.26518473 -767.43715477 1854.29289055 C-772.43287133 1849.30661113 -777.3265481 1844.28992834 -781.91123962 1838.92062378 C-784.43526921 1835.99034084 -787.11222427 1833.20326227 -789.765625 1830.390625 C-794.48935609 1825.34746682 -798.95896791 1820.17621524 -803.28125 1814.78125 C-805.41047646 1812.1788621 -807.62511857 1809.68736998 -809.890625 1807.203125 C-813.7056895 1803.00655405 -817.33327375 1798.69535017 -820.8984375 1794.28515625 C-822.69456109 1792.06393131 -824.50071036 1789.85412123 -826.3203125 1787.65234375 C-833.71069608 1778.68076717 -840.75270692 1769.48733668 -847.6875 1760.16015625 C-850.04625917 1756.99034303 -852.42726769 1753.84087296 -854.84375 1750.71484375 C-855.39998047 1749.99482178 -855.95621094 1749.2747998 -856.52929688 1748.53295898 C-857.53752457 1747.23158145 -858.54876325 1745.93252479 -859.56445312 1744.63696289 C-879.59932692 1718.73814049 -897.6858073 1690.3408122 -914.390625 1662.203125 C-914.92445801 1661.30835449 -915.45829102 1660.41358398 -916.00830078 1659.49169922 C-937.06565149 1624.10154986 -956.51871726 1587.77729198 -973.390625 1550.203125 C-973.94979875 1548.96367237 -974.50904455 1547.72425225 -975.06835938 1546.48486328 C-1008.05471852 1473.23705266 -1032.50585297 1396.64674693 -1070.59375 1122.4375 C-1070.60072671 1120.4844409 -1070.60776769 1118.53138202 -1070.61486816 1116.57832336 C-1070.63415478 1110.36992107 -1070.63904363 1104.16155399 -1070.640625 1097.953125 C-1070.64121414 1096.89755779 -1070.64180328 1095.84199059 -1070.64241028 1094.75443649 C-1070.65429832 1064.60912906 -1070.51877986 1034.60151659 -1067.61523438 1004.56951904 C-1067.38697405 1002.16466006 -1067.17540808 999.75885692 -1066.96875 997.35205078 C-1059.50148848 910.74344402 -1040.84300055 825.68292114 -965.390625 625.203125 C-964.83084961 624.01509277 -964.27107422 622.82706055 -963.69433594 621.60302734 C-956.54288894 606.45388694 -949.05908248 591.55487358 -940.89257812 576.921875 C-939.32903824 574.09164416 -937.80097559 571.2446053 -936.28125 568.390625 C-928.45070442 553.69919016 -920.09235247 539.39425999 -911.390625 525.203125 C-910.80087891 524.2347168 -910.21113281 523.26630859 -909.60351562 522.26855469 C-892.174039 493.68692127 -873.18655226 465.89122528 -852.93359375 439.234375 C-851.35313545 437.15377167 -849.77815656 435.06908831 -848.203125 432.984375 C-841.26207161 423.82515463 -834.12941588 414.84328479 -826.83496094 405.96337891 C-825.53917663 404.38416916 -824.24964702 402.79983214 -822.9609375 401.21484375 C-817.66551248 394.70392081 -812.26941499 388.28310853 -806.82763672 381.89453125 C-805.39663498 380.21019893 -803.97325465 378.5196622 -802.55078125 376.828125 C-795.44631388 368.41588802 -788.00377163 360.36924975 -780.42651367 352.38256836 C-779.0152317 350.871774 -777.62058195 349.34533672 -776.23950195 347.80688477 C-767.38678509 337.96594129 -757.99720428 328.65714162 -748.62866211 319.31079102 C-746.18139023 316.86924758 -743.73868196 314.42319509 -741.29725361 311.97581005 C-738.93108008 309.60512482 -736.56107253 307.23828777 -734.19140625 304.87109375 C-733.32663162 304.00429489 -732.46185699 303.13749603 -731.57087708 302.24443054 C-727.22356692 297.91373495 -722.82010282 293.71726539 -718.1550293 289.72941589 C-715.03539874 287.03079194 -712.07131328 284.16518156 -709.078125 281.328125 C-703.85460998 276.41145492 -698.5383331 271.75616795 -692.93359375 267.27734375 C-690.34051153 265.16224904 -687.862776 262.95794404 -685.390625 260.703125 C-681.19405405 256.8880605 -676.88285017 253.26047625 -672.47265625 249.6953125 C-670.25143131 247.89918891 -668.04162123 246.09303964 -665.83984375 244.2734375 C-656.86826717 236.88305392 -647.67483668 229.84104308 -638.34765625 222.90625 C-635.17784303 220.54749083 -632.02837296 218.16648231 -628.90234375 215.75 C-628.18232178 215.19376953 -627.4622998 214.63753906 -626.72045898 214.06445312 C-625.41908145 213.05622543 -624.12002479 212.04498675 -622.82446289 211.02929688 C-596.92564049 190.99442308 -568.5283122 172.9079427 -540.390625 156.203125 C-539.49585449 155.66929199 -538.60108398 155.13545898 -537.67919922 154.58544922 C-502.28904986 133.52809851 -465.96479198 114.07503274 -428.390625 97.203125 C-427.15117237 96.64395125 -425.91175225 96.08470545 -424.67236328 95.52539062 C-351.52619808 62.58480639 -275.0240227 38.12455649 0 0 Z " fill="#FEFEFE" transform="translate(1093.390625,21.796875)"/>
<path d="M0 0 C3.45629988 0.24437588 6.91301659 0.46211555 10.37158203 0.67138672 C16.86134693 1.08785872 23.33195735 1.64813723 29.80517578 2.26904297 C30.50145081 2.33524841 31.19772583 2.40145386 31.9151001 2.46966553 C86.18124433 7.67553681 140.35855631 17.31647497 192.80517578 32.26904297 C194.68798161 32.7990146 196.57079292 33.32896675 198.45361328 33.85888672 C200.02931952 34.3074547 201.60485002 34.75664061 203.18017578 35.20654297 C203.93298828 35.41988281 204.68580078 35.63322266 205.46142578 35.85302734 C221.89232415 40.54190911 238.19299756 45.57267279 254.36767578 51.08154297 C255.3028302 51.39996155 256.23798462 51.71838013 257.20147705 52.04644775 C344.86087105 82.01942516 428.13097722 124.35950794 504.80517578 176.26904297 C505.4814502 176.72633789 506.15772461 177.18363281 506.85449219 177.65478516 C517.66065683 184.97840686 528.26202793 192.5727863 538.80517578 200.26904297 C539.6042334 200.85121582 540.40329102 201.43338867 541.2265625 202.03320312 C551.0033018 209.16357767 560.66671059 216.40251993 570.13134766 223.94238281 C571.85354905 225.30738316 573.58552402 226.65899313 575.32080078 228.00732422 C582.25482468 233.4009838 589.03262095 238.93774076 595.71142578 244.64404297 C598.60068899 247.10820261 601.54036036 249.50565297 604.49267578 251.89404297 C608.94421386 255.51738792 613.22900033 259.28868169 617.47314453 263.15185547 C619.56341467 265.04955466 621.67503693 266.91637711 623.80517578 268.76904297 C627.65140384 272.12097666 631.44545622 275.52844643 635.23095703 278.94873047 C636.93100658 280.48109683 638.63665146 282.00728098 640.34814453 283.52685547 C645.2923476 287.92681293 650.02921222 292.4596747 654.67626953 297.17138672 C656.55761014 299.02511132 658.47862985 300.75037667 660.49267578 302.45654297 C668.92898094 309.70702211 676.85474611 317.79094005 684.03564453 326.28076172 C686.3529017 328.88447894 688.82538758 331.32202547 691.30517578 333.76904297 C695.03114728 337.45052339 698.60373817 341.20199436 702.00439453 345.18701172 C704.1784178 347.70057875 706.42908066 350.13680526 708.68017578 352.58154297 C712.80743742 357.10158026 716.69107713 361.76699429 720.53173828 366.53076172 C722.83214048 369.30152107 725.2303905 371.94242097 727.68017578 374.58154297 C732.93937773 380.30407492 737.68927744 386.34808804 742.43164062 392.49707031 C743.74944375 394.19714409 745.08045346 395.8856204 746.41845703 397.56982422 C757.98185318 412.1328127 769.15963471 427.0210784 779.80517578 442.26904297 C780.44632324 443.18661377 781.0874707 444.10418457 781.74804688 445.04956055 C804.84076099 478.24185928 825.63348869 512.6798808 844.80517578 548.26904297 C845.32547363 549.23374512 845.84577148 550.19844727 846.38183594 551.19238281 C853.62563483 564.67942938 860.33814083 578.3945355 866.80517578 592.26904297 C867.37821076 593.49302211 867.95129186 594.71697967 868.52441406 595.94091797 C889.48680792 640.79265273 907.68431815 687.48744987 921.19873047 735.14648438 C921.82866735 737.35126344 922.47570676 739.55050434 923.12548828 741.74951172 C933.24736819 776.23288423 941.51626825 811.27132982 948.18017578 846.58154297 C948.41889404 847.84313232 948.6576123 849.10472168 948.90356445 850.40454102 C950.27355562 857.84312236 951.36880043 865.28347604 952.32861328 872.78540039 C952.73314421 875.74249661 953.21788913 878.65182081 953.78173828 881.58154297 C961.78909994 924.03772956 981.52380469 1065.81908453 961.80517578 1100.26904297 C961.47420898 1099.56634277 961.14324219 1098.86364258 960.80224609 1098.13964844 C953.68793437 1083.08110356 946.31536156 1068.26596914 938.17675781 1053.72705078 C936.90252809 1051.44350773 935.64520687 1049.15175172 934.39501953 1046.85498047 C914.42394914 1010.28240979 892.07430146 974.81377038 868.80517578 940.26904297 C867.49201828 938.29031249 866.17950029 936.31115742 864.86767578 934.33154297 C860.39320997 927.61984426 855.81339832 920.98180585 851.23291016 914.34228516 C849.8208672 912.2918288 848.41376319 910.23807681 847.00830078 908.18310547 C841.04463819 899.46835792 834.98203975 890.83388122 828.80517578 882.26904297 C828.06678467 881.24472168 828.06678467 881.24472168 827.31347656 880.19970703 C824.59515155 876.43013822 821.87348999 872.66301067 819.14892578 868.89794922 C816.97387391 865.89085169 814.80738984 862.87791048 812.64892578 859.85888672 C804.92651478 849.07509136 796.9518639 838.50162185 788.87988281 827.97753906 C786.07642716 824.31767356 783.28468704 820.64895107 780.49316406 816.97998047 C777.84271951 813.49707677 775.18861522 810.01697186 772.53417969 806.53710938 C771.03280893 804.56764675 769.53391543 802.59633227 768.03564453 800.62451172 C763.03697132 794.07536152 757.90202565 787.65644405 752.68896484 781.27734375 C749.19742198 777.00045971 745.76075775 772.6868235 742.36767578 768.33154297 C736.51267978 760.82729795 730.44521691 753.50217769 724.37548828 746.17138672 C722.29643558 743.65273333 720.23849449 741.11715298 718.18017578 738.58154297 C713.82376554 733.24897413 709.33916121 728.03101288 704.84814453 722.81201172 C701.96286962 719.45761621 699.09843165 716.08608426 696.24267578 712.70654297 C695.792229 712.17359619 695.34178223 711.64064941 694.87768555 711.09155273 C693.0681027 708.9497101 691.25941049 706.80711624 689.45068359 704.66455078 C686.71157438 701.42060934 683.96953556 698.17918587 681.22314453 694.94140625 C680.26403644 693.81022676 679.30572464 692.6783717 678.34814453 691.54589844 C671.89266225 683.91727277 665.2876732 676.46891768 658.47705078 669.15576172 C655.80178802 666.26538279 653.20690624 663.32019413 650.62939453 660.34326172 C646.90445064 656.10783301 643.0605593 651.9783882 639.24023438 647.82910156 C637.39804381 645.82644799 635.56063142 643.81944771 633.72338867 641.81225586 C631.41945285 639.2958916 629.11248968 636.78230957 626.80517578 634.26904297 C626.11584961 633.5178418 626.11584961 633.5178418 625.41259766 632.75146484 C611.23451581 617.31135624 596.82753585 602.13527957 581.99267578 587.32373047 C580.44272606 585.77310435 578.89292456 584.22233005 577.34326172 582.67141724 C574.1314989 579.45819718 570.91797809 576.24674922 567.703125 573.03662109 C563.60027358 568.93950951 559.50198869 564.83786384 555.40498352 560.73490715 C552.22052025 557.54682144 549.03366837 554.36113198 545.84609985 551.17615128 C544.3336163 549.66433008 542.82186211 548.1517788 541.31088257 546.63845444 C539.20202573 544.52703837 537.08995675 542.41888652 534.97705078 540.31152344 C534.36704727 539.6994957 533.75704376 539.08746796 533.1285553 538.45689392 C529.42911403 534.77527622 525.60968693 531.28909256 521.64483643 527.89450264 C519.78686316 526.25286258 518.04045976 524.53915916 516.30517578 522.76904297 C513.98080491 520.40545324 511.60003792 518.1801834 509.08642578 516.01904297 C504.19881475 511.76992391 499.50618129 507.32761264 494.80517578 502.87451172 C490.82138809 499.11636825 486.77163678 495.4577009 482.63574219 491.86767578 C480.21433196 489.75305932 477.85397127 487.57539526 475.49267578 485.39404297 C470.97613741 481.2699762 466.31384562 477.38967432 461.55517578 473.55029297 C458.72418 471.20185328 456.01133981 468.75994395 453.30517578 466.26904297 C448.88877434 462.20920652 444.34354056 458.37580476 439.67626953 454.60888672 C436.57530561 452.0817066 433.53352123 449.49278292 430.49267578 446.89404297 C425.53200334 442.66784971 420.4646405 438.60669668 415.31982422 434.60766602 C410.5558334 430.89193651 405.89286812 427.06335725 401.24267578 423.20654297 C394.79135365 417.86543499 388.25898382 412.67597961 381.58154297 407.61865234 C379.53860382 406.06651276 377.50365237 404.50421392 375.46923828 402.94091797 C373.95624049 401.77942962 372.44321985 400.61797103 370.93017578 399.45654297 C369.87733398 398.64721313 369.87733398 398.64721313 368.80322266 397.8215332 C364.52952518 394.54865761 360.20216322 391.3744871 355.80517578 388.26904297 C356.44583984 388.89810547 357.08650391 389.52716797 357.74658203 390.17529297 C362.34193323 394.72270459 366.82115899 399.29710808 371.02783203 404.20654297 C373.08493818 406.59369033 375.1920235 408.93139053 377.30517578 411.26904297 C382.1042537 416.5923899 386.84595528 421.95767635 391.48486328 427.42138672 C396.54611938 433.37418066 401.65489545 439.249224 406.99267578 444.95654297 C411.42721802 449.69967448 415.59266295 454.59094141 419.66064453 459.65576172 C421.80392534 462.2675192 424.02897908 464.77269598 426.30517578 467.26904297 C430.12688441 471.4663333 433.71991768 475.80614527 437.28955078 480.21826172 C440.23442733 483.78961045 443.26240777 487.28113089 446.30517578 490.76904297 C450.8232113 495.95172479 455.24444592 501.19378911 459.57080078 506.53857422 C462.06676301 509.58870987 464.62061168 512.58485996 467.18017578 515.58154297 C470.98128103 520.03967844 474.65119783 524.57814352 478.24267578 529.20654297 C481.97111127 534.01061677 485.81892438 538.67677361 489.80517578 543.26904297 C494.22124347 548.36041754 498.45534419 553.55686839 502.59033203 558.87841797 C506.10136651 563.39260515 509.68768694 567.83981196 513.30517578 572.26904297 C518.77531646 578.97453246 524.14955643 585.74857637 529.47558594 592.56884766 C531.2360375 594.82000166 533.00428905 597.06496695 534.77246094 599.31005859 C537.12067472 602.2932703 539.46310131 605.28101048 541.80517578 608.26904297 C542.59964111 609.2817627 542.59964111 609.2817627 543.41015625 610.31494141 C550.78736986 619.7276198 558.04571078 629.21863068 565.1965332 638.80444336 C569.35420175 644.36683876 573.58401905 649.86575308 577.86767578 655.33154297 C587.88854051 668.1384082 597.41724119 681.30546064 606.91308594 694.50390625 C610.23740454 699.1189491 613.59827509 703.70470453 616.9855957 708.27368164 C627.19075397 722.04079038 636.97374505 736.09384802 646.65087891 750.2355957 C648.99422254 753.65521319 651.35674332 757.05911548 653.75439453 760.44091797 C671.52174245 785.52858876 688.41870613 811.26187754 704.80517578 837.26904297 C705.44245605 838.27854004 706.07973633 839.28803711 706.73632812 840.328125 C714.75537711 853.04447459 722.64088447 865.83318365 730.31494141 878.76074219 C731.85385492 881.35097767 733.39966347 883.9370203 734.94580078 886.52294922 C743.15779533 900.29557671 751.04568295 914.23712343 758.80517578 928.26904297 C759.31935059 929.1968457 759.83352539 930.12464844 760.36328125 931.08056641 C780.3612698 967.22401853 798.89520401 1004.13970118 814.80517578 1042.26904297 C815.31290527 1043.47560547 815.82063477 1044.68216797 816.34375 1045.92529297 C817.80444557 1049.40881493 819.24644777 1052.89934688 820.68017578 1056.39404297 C821.11579834 1057.4377002 821.5514209 1058.48135742 822.00024414 1059.55664062 C822.38704346 1060.51618652 822.77384277 1061.47573242 823.17236328 1062.46435547 C823.51380371 1063.2998291 823.85524414 1064.13530273 824.20703125 1064.99609375 C824.87910332 1067.54996762 824.52491597 1068.78062782 823.80517578 1071.26904297 C805.86763717 1062.81259622 788.10719768 1054.01398869 770.37133789 1045.14477539 C767.28514677 1043.6016391 764.19756424 1042.06134477 761.10864258 1040.52368164 C745.06656573 1032.5374239 729.070434 1024.5248769 713.40869141 1015.80761719 C708.44683901 1013.04833387 703.41227212 1010.43562548 698.36767578 1007.83154297 C690.07781858 1003.52098251 681.92170388 999.00670064 673.80444336 994.37988281 C667.54575875 990.81258388 661.25894628 987.30245977 654.94873047 983.82714844 C641.22847123 976.26422568 627.73354463 968.3687168 614.28369141 960.33691406 C608.88238186 957.11960399 603.45059162 953.95421408 598.02218628 950.78292847 C585.32798539 943.36502625 572.70045916 935.8417108 560.10693359 928.25390625 C556.54949565 926.11533996 552.98653321 923.98620434 549.42236328 921.85888672 C534.73634563 913.08843793 520.14629931 904.18891448 505.67333984 895.06933594 C502.82580173 893.28198949 499.96955017 891.50953238 497.10986328 889.74169922 C474.43248576 875.70332266 452.06795665 861.11644747 430.16015625 845.90283203 C427.51597484 844.06840719 424.86562284 842.24306658 422.21533203 840.41748047 C410.70530962 832.47092656 399.34975524 824.35071951 388.13330078 815.99560547 C385.74049754 814.22107689 383.33707679 812.46189434 380.93017578 810.70654297 C372.94175404 804.87437287 365.05097492 798.96870353 357.36889648 792.73730469 C352.73243704 788.98205278 348.00314496 785.36526117 343.24267578 781.76904297 C336.08329822 776.34093895 329.2380445 770.62685986 322.47265625 764.71875 C319.70825642 762.31538159 316.91433831 759.94721724 314.11767578 757.58154297 C313.58053955 757.12634277 313.04340332 756.67114258 312.48999023 756.20214844 C309.1097065 753.34575965 305.68749394 750.54759974 302.24267578 747.76904297 C297.17198028 743.64448307 292.37325099 739.27287698 287.58251953 734.83154297 C285.30866355 732.73358302 283.01490831 730.67342818 280.68017578 728.64404297 C262.59643925 712.92226387 245.53929803 696.16827916 228.62036133 679.21459961 C225.78659493 676.37508124 222.94828343 673.54015475 220.10867214 670.70648289 C217.88907595 668.4905185 215.67188904 666.27215577 213.45540047 664.05308342 C212.40968916 663.00671296 211.36325667 661.96106264 210.31603813 660.91620064 C204.5967075 655.2069459 199.06435662 649.40723264 193.80517578 643.26904297 C192.59996138 641.96071095 191.38673419 640.65957377 190.15673828 639.37451172 C189.24468628 638.41508667 189.24468628 638.41508667 188.31420898 637.4362793 C187.69247803 636.78296631 187.07074707 636.12965332 186.43017578 635.45654297 C181.39518374 630.13077444 176.61044225 624.71275809 172.04345703 618.97607422 C169.41119785 615.79255658 166.62823732 612.7828043 163.80517578 609.76904297 C159.36046005 605.01700211 155.15136315 600.14544472 151.07470703 595.06982422 C148.5767006 591.98708651 146.00834604 588.97208946 143.43017578 585.95654297 C138.67488948 580.37252082 134.12326593 574.64909532 129.61767578 568.86279297 C127.23360978 565.80424331 124.80960592 562.7800041 122.37426758 559.76220703 C117.31519318 553.48898756 112.39184379 547.13336804 107.58447266 540.6652832 C104.73792363 536.83737083 101.86377815 533.03418472 98.94970703 529.25732422 C91.82330006 520.01197714 84.9117105 510.69692911 78.38964844 501.01416016 C75.11557165 496.15756197 71.74298573 491.40229509 68.24267578 486.70654297 C62.10993198 478.4357181 56.45187013 469.87646829 50.80517578 461.26904297 C49.7077354 459.59853645 48.61029407 457.92803054 47.51283264 456.25753784 C43.60263609 450.30463834 39.69588439 444.34947779 35.78955078 438.39404297 C35.31574478 437.67175507 34.84193878 436.94946716 34.35377502 436.20529175 C31.72495989 432.19743632 29.09736475 428.18878624 26.47119141 424.17919922 C14.00139311 405.14386445 1.54013519 386.12924029 -11.59570312 367.54443359 C-14.05939457 364.03884515 -16.46854467 360.49657815 -18.88232422 356.95654297 C-28.14772823 343.42501643 -37.91266101 330.24451931 -47.65966797 317.05810547 C-50.01471177 313.87167855 -52.3606015 310.67883846 -54.69873047 307.47998047 C-62.16822216 297.27289141 -69.82311109 287.23381839 -77.62548828 277.27929688 C-79.87694594 274.39527348 -82.09822639 271.48858006 -84.31982422 268.58154297 C-88.36912238 263.30618889 -92.50252221 258.10374893 -96.66845703 252.92016602 C-99.55048123 249.33234936 -102.40886864 245.72828679 -105.23925781 242.09960938 C-111.48019269 234.09976147 -117.91594839 226.26925166 -124.38769531 218.45556641 C-126.18954811 216.27542677 -127.98435834 214.08969154 -129.77685547 211.90185547 C-136.20791543 204.0561037 -142.70732412 196.28051084 -149.33154297 188.59716797 C-152.14035308 185.33875814 -154.92041559 182.05675201 -157.69482422 178.76904297 C-165.9862053 168.95872154 -174.28564258 159.17863866 -182.96826172 149.71044922 C-184.88615629 147.60749464 -186.76858467 145.48235141 -188.63232422 143.33154297 C-192.91083042 138.41176184 -197.33960584 133.62962337 -201.75537109 128.83349609 C-204.07224735 126.3154257 -206.38335367 123.79207464 -208.69482422 121.26904297 C-211.46671104 118.24417824 -214.23937135 115.22003693 -217.01513672 112.19873047 C-217.95008141 111.18054617 -218.88497755 110.16231727 -219.81982422 109.14404297 C-220.27728027 108.64606201 -220.73473633 108.14808105 -221.20605469 107.63500977 C-224.10468082 104.47433455 -226.96823347 101.28463188 -229.81982422 98.08154297 C-233.36273098 94.12740596 -237.04714267 90.36238945 -240.85888672 86.66748047 C-242.7164967 84.76016855 -244.43199992 82.83425854 -246.15551758 80.81054688 C-250.90790313 75.36468842 -256.03832756 70.30068967 -261.15966797 65.20654297 C-262.20363487 64.16444557 -263.24737794 63.12212388 -264.29090881 62.07958984 C-267.01268344 59.36159851 -269.73744945 56.64662607 -272.46289062 53.93231201 C-275.25363495 51.15187279 -278.04148293 48.36853268 -280.82958984 45.58544922 C-286.2818678 40.14383455 -291.73731531 34.70541194 -297.19482422 29.26904297 C-296.19482422 27.26904297 -296.19482422 27.26904297 -294.12304688 26.49462891 C-293.21087402 26.2500293 -292.29870117 26.00542969 -291.35888672 25.75341797 C-289.81322021 25.33552002 -289.81322021 25.33552002 -288.23632812 24.90917969 C-287.10888184 24.61543457 -285.98143555 24.32168945 -284.81982422 24.01904297 C-283.65241699 23.71111816 -282.48500977 23.40319336 -281.28222656 23.0859375 C-241.29736604 12.68185005 -200.51323917 6.22040399 -159.44482422 2.01904297 C-158.63556488 1.9360495 -157.82630554 1.85305603 -156.99252319 1.76754761 C-105.1398327 -3.5005253 -51.96528296 -3.70043475 0 0 Z " fill="#72C300" transform="translate(1184.19482421875,75.73095703125)"/>
<path d="M0 0 C0.66 0 1.32 0 2 0 C2.31710938 1.19109375 2.63421875 2.3821875 2.9609375 3.609375 C9.36978778 27.12579692 17.80780947 49.86816634 28 72 C28.43957031 72.95745117 28.87914062 73.91490234 29.33203125 74.90136719 C35.65506944 88.59065376 42.48536113 101.92716508 50 115 C50.44891602 115.78342773 50.89783203 116.56685547 51.36035156 117.37402344 C66.46781309 143.56101001 83.781564 168.68569997 102.6484375 192.296875 C104.04986112 194.06283077 105.43315379 195.84175683 106.8125 197.625 C111.61153076 203.81903987 116.50667154 209.80283744 121.8203125 215.5703125 C124.14622381 218.162995 126.32337808 220.84360549 128.5 223.5625 C131.98400042 227.87197787 135.65968276 231.8087772 139.6640625 235.63671875 C141.59754275 237.59283171 143.38028685 239.57871441 145.16967773 241.66308594 C148.82962766 245.85980993 152.67871265 249.82360534 156.62109375 253.75390625 C157.32468521 254.45845444 158.02827667 255.16300262 158.75318909 255.88890076 C160.23014648 257.36653367 161.70834742 258.84292457 163.18774414 260.31811523 C165.43165085 262.55666481 167.67016704 264.80050473 169.90820312 267.04492188 C171.35384618 268.48990404 172.79979945 269.93457592 174.24609375 271.37890625 C174.9046788 272.03951553 175.56326385 272.70012482 176.24180603 273.38075256 C180.6679339 277.7849947 185.27041562 281.92545422 190 286 C191.54533228 287.39177403 193.08755036 288.78702315 194.625 290.1875 C203.30770486 298.01529238 212.16492157 305.65669949 221.34375 312.8984375 C223.33497306 314.47384633 225.31191824 316.06172204 227.28125 317.6640625 C237.28008433 325.77704418 247.57802558 333.44080237 258 341 C258.64888184 341.47211914 259.29776367 341.94423828 259.96630859 342.43066406 C268.8193602 348.86279298 277.84765317 355.00252636 287 361 C287.63711914 361.41830078 288.27423828 361.83660156 288.93066406 362.26757812 C317.21347967 380.8020896 346.17083941 398.06876231 376 414 C376.88623047 414.47469727 377.77246094 414.94939453 378.68554688 415.43847656 C449.17537249 453.07546287 524.29515828 479.25128424 599.84765625 504.671875 C629.47826567 514.64632865 658.92638391 525.0235353 688.27258301 535.80677795 C696.0560957 538.66389308 703.86396837 541.44183997 711.6875 544.1875 C751.42161504 558.24411278 790.99223369 573.75349512 829 592 C830.41297363 592.67361572 830.41297363 592.67361572 831.85449219 593.36083984 C845.69905489 599.99277734 858.97438973 607.42763661 872.1484375 615.30078125 C874.81969059 616.89255535 877.50124925 618.46495918 880.1875 620.03125 C914.42824084 640.10665247 946.12481142 664.47162744 975.21484375 691.43359375 C977.71885528 693.74093677 980.2582448 695.9987207 982.8125 698.25 C991.75616745 706.28193436 1000.5143875 714.8006975 1008.2734375 723.9921875 C1010.11132307 726.12945714 1012.01753909 728.19636123 1013.93579102 730.26147461 C1019.54996456 736.31182991 1024.86935089 742.5302192 1030 749 C1030.49306641 749.61520508 1030.98613281 750.23041016 1031.49414062 750.86425781 C1045.98634964 768.97513812 1059.36600639 787.92325439 1071 808 C1071.81549316 809.40306396 1071.81549316 809.40306396 1072.64746094 810.83447266 C1081.16018764 825.55963823 1088.99589117 840.4989148 1096 856 C1096.35755371 856.78971191 1096.71510742 857.57942383 1097.08349609 858.39306641 C1106.23889513 878.84289465 1113.63108087 900.16354752 1119.40478516 921.80273438 C1119.93398252 923.75629315 1120.50143219 925.69939928 1121.07421875 927.640625 C1124.49308745 939.47828894 1126.36639989 951.63566455 1128.43896484 963.76611328 C1128.94171597 966.66404253 1129.47344359 969.55456512 1130.015625 972.4453125 C1134.37969191 996.56321274 1135.39099949 1020.529224 1135.37606049 1044.98351288 C1135.37501627 1047.09214579 1135.37732251 1049.20075607 1135.37994385 1051.30938721 C1135.39034788 1074.34173888 1134.29606473 1097.21782682 1131.25 1120.0625 C1131.08153564 1121.33722168 1130.91307129 1122.61194336 1130.73950195 1123.92529297 C1127.35420539 1148.95409116 1122.26068976 1173.54086459 1116 1198 C1111.06776907 1197.41473328 1106.62605635 1196.37646492 1101.91796875 1194.8046875 C1100.90731102 1194.46927696 1100.90731102 1194.46927696 1099.87623596 1194.12709045 C1097.64422127 1193.38345473 1095.41569246 1192.63000615 1093.1875 1191.875 C1092.40435425 1191.61123566 1091.6212085 1191.34747131 1090.81433105 1191.07571411 C1084.86866081 1189.07236607 1078.9322976 1187.04257806 1073 1185 C1072.1672052 1184.71344543 1071.3344104 1184.42689087 1070.47637939 1184.13165283 C1040.97033096 1173.95956351 1011.92085898 1162.72537698 983 1151 C982.1717572 1150.66462219 981.3435144 1150.32924438 980.49017334 1149.98370361 C930.41597456 1129.68695147 881.45601624 1106.87071936 833 1083 C832.18976379 1082.60089417 831.37952759 1082.20178833 830.54473877 1081.79058838 C812.74616204 1073.01669229 795.04835332 1064.13984458 777.70507812 1054.48925781 C773.64165021 1052.25217204 769.54419428 1050.0798675 765.45043945 1047.89892578 C753.71483608 1041.63867366 742.17188526 1035.11061289 730.71484375 1028.35546875 C726.26188466 1025.73066891 721.78136138 1023.16088156 717.28100586 1020.6184082 C697.13346745 1009.2279652 677.46425017 997.10126821 658.140625 984.3671875 C653.63640364 981.40265748 649.08586738 978.52363052 644.5 975.6875 C636.88127337 970.96339141 629.4209821 966.02808717 622 961 C621.18257324 960.44683105 620.36514648 959.89366211 619.52294922 959.32373047 C590.06398036 939.36800474 561.16181325 918.74872707 533 897 C531.88579532 896.14533947 530.77120675 895.29117918 529.65625 894.4375 C520.3366723 887.29895576 511.17425637 879.98498798 502.1015625 872.53515625 C499.83468954 870.67727052 497.55650516 868.83403866 495.2734375 866.99609375 C486.63115217 860.03000388 478.17586156 852.88869223 469.8203125 845.58203125 C467.43990564 843.51322271 465.03627853 841.47249532 462.63232422 839.43115234 C456.28356974 834.03497564 450.1116058 828.48023753 444.015625 822.80078125 C441.37057586 820.33668283 438.69352981 817.91114362 436 815.5 C434.33280373 814.00058866 432.66615986 812.50056293 431 811 C429.61167969 809.75283203 429.61167969 809.75283203 428.1953125 808.48046875 C420.25562715 801.28259342 412.6772788 793.74990812 405.15478516 786.11791992 C400.82629053 781.74423818 396.426264 777.56998323 391.75805664 773.56225586 C389.27006068 771.35135652 387.07905449 768.92857766 384.875 766.4375 C380.64681117 761.7182957 376.25636718 757.20379389 371.75 752.75 C367.59826678 748.63810748 363.55044188 744.51520485 359.76953125 740.0546875 C357.40818218 737.31281198 354.95315211 734.65939602 352.5 732 C348.74808832 727.9279354 345.04855097 723.8189405 341.4375 719.62109375 C340.01449184 718.0163427 338.53215479 716.5002349 337 715 C355.07567581 744.58208795 375.63887979 772.48958664 397.60302734 799.28710938 C399.46514231 801.57033179 401.2958723 803.87780718 403.125 806.1875 C414.17987466 820.03494216 425.88264679 833.45400244 437.8046875 846.55859375 C439.63725437 848.59659071 441.44202464 850.65325137 443.24047852 852.72119141 C456.17628641 867.50588177 470.15634851 881.3151371 484.05444336 895.18481445 C486.89396173 898.01858086 489.72888822 900.85689235 492.56256008 903.69650364 C494.77852447 905.91609983 496.9968872 908.13328674 499.21595955 910.34977531 C500.26233001 911.39548662 501.30798032 912.44191911 502.35284233 913.48913765 C507.52188525 918.66730308 512.71117097 923.77530937 518.28448486 928.52259827 C521.39248571 931.19920878 524.33620967 934.05391863 527.3125 936.875 C532.48550199 941.74480356 537.76995846 946.35778905 543.32421875 950.79296875 C546.31497661 953.25979822 549.16343606 955.85989035 552 958.5 C556.57922124 962.755386 561.29286878 966.77323388 566.1640625 970.6953125 C568.70239114 972.75814156 571.19858988 974.85871397 573.68457031 976.98364258 C580.34177585 982.67341678 587.15260081 988.13225755 594.07080078 993.50048828 C596.11256977 995.08749728 598.14841124 996.68189855 600.18359375 998.27734375 C616.4893653 1011.04043293 633.04803073 1023.45488714 649.89550781 1035.49414062 C651.84847936 1036.89158013 653.79569035 1038.29669046 655.7421875 1039.703125 C683.00435425 1059.28157882 711.37229932 1077.49577763 740 1095 C740.80244141 1095.49081055 741.60488281 1095.98162109 742.43164062 1096.48730469 C765.85063641 1110.76883102 789.76357073 1124.16132776 814 1137 C814.89799316 1137.47791992 815.79598633 1137.95583984 816.72119141 1138.44824219 C856.97960379 1159.84611165 898.1068997 1179.05498615 940 1197 C940 1197.33 940 1197.66 940 1198 C928.07708678 1197.60484059 916.46733068 1196.48828305 904.67578125 1194.6875 C901.18214247 1194.15713539 897.71381832 1193.75376804 894.1875 1193.5 C889.08606884 1193.10447765 884.11947581 1192.13459284 879.10546875 1191.15625 C874.81081477 1190.32320036 870.52220763 1189.60260538 866.1875 1189 C865.03894531 1188.84015625 863.89039063 1188.6803125 862.70703125 1188.515625 C861.48371094 1188.34546875 860.26039063 1188.1753125 859 1188 C843.94119335 1185.90371443 829.14249097 1182.82276078 814.30786133 1179.51416016 C811.77662638 1178.95023539 809.24476988 1178.38914965 806.71289062 1177.828125 C801.88133432 1176.75625389 797.05169392 1175.67604819 792.22311401 1174.59085083 C790.31196458 1174.16185164 788.40045522 1173.73445213 786.48855591 1173.30880737 C775.73218254 1170.91000799 765.12282426 1168.28214941 754.5769043 1165.07836914 C750.49301066 1163.84715228 746.38785871 1162.77897782 742.25 1161.75 C729.01785075 1158.33203001 716.00054341 1154.20047581 703 1150 C702.30926392 1149.77761658 701.61852783 1149.55523315 700.90686035 1149.32611084 C660.18635176 1136.19208851 620.42238923 1120.21677121 581.78540039 1101.84771729 C579.01137231 1100.53059449 576.23164502 1099.22558302 573.453125 1097.91796875 C567.94992579 1095.31677239 562.47118445 1092.66774154 557 1090 C556.16581543 1089.59652344 555.33163086 1089.19304687 554.47216797 1088.77734375 C541.63423478 1082.55713386 529.20326355 1075.73452058 516.83740234 1068.62597656 C514.10268692 1067.05884485 511.3598269 1065.50722306 508.61328125 1063.9609375 C497.06915487 1057.44721854 485.7437502 1050.6336546 474.52148438 1043.58056641 C472.10898318 1042.06831498 469.6886058 1040.56960477 467.265625 1039.07421875 C455.44964344 1031.74632431 444.03428518 1023.89510653 432.67285156 1015.88378906 C430.26244474 1014.18496745 427.84728413 1012.49325278 425.4296875 1010.8046875 C410.50867822 1000.36324449 395.82693489 989.67052488 381.76953125 978.0859375 C378.18787554 975.13720325 374.53986538 972.28162829 370.875 969.4375 C364.32553048 964.33267113 358.028011 958.96363462 351.75878906 953.52050781 C349.99008762 951.99143055 348.21176823 950.47439219 346.4296875 948.9609375 C338.79298953 942.47110456 331.35143264 935.8101625 324 929 C322.06324394 927.22835305 320.12573423 925.45752966 318.1875 923.6875 C316.65239812 922.2778548 315.11846694 920.86694748 313.58496094 919.45556641 C312.53026425 918.48697404 311.4736265 917.52049093 310.41503906 916.55615234 C301.37395896 908.31600877 292.6578745 899.76383928 284 891.125 C283.45743561 890.5850238 282.91487122 890.04504761 282.35586548 889.4887085 C276.93549713 884.08875488 271.58534406 878.67515785 266.61035156 872.85546875 C263.64794601 869.44214519 260.49377228 866.20729218 257.375 862.9375 C250.55337014 855.73557297 243.97872001 848.36350331 237.546875 840.81298828 C235.9855275 838.98303776 234.41587899 837.16053645 232.84375 835.33984375 C227.61099797 829.27365763 222.43537969 823.16959617 217.390625 816.9453125 C215.61997115 814.76382066 213.83882744 812.59353301 212.046875 810.4296875 C204.85604117 801.71292389 198.04831862 792.77287674 191.39453125 783.640625 C188.8229799 780.11135746 186.20816979 776.61947459 183.56420898 773.14428711 C171.73505431 757.57475173 160.66318095 741.38829833 150 725 C149.51450684 724.2565332 149.02901367 723.51306641 148.52880859 722.74707031 C102.49287975 652.0210838 65.92241539 576.56888776 38 497 C37.68434082 496.10506836 37.36868164 495.21013672 37.04345703 494.28808594 C32.26798595 480.6679223 28.43165071 466.87012322 24.77587891 452.91210938 C23.94203898 449.78245468 23.05070647 446.67371007 22.14208984 443.56518555 C4.34396582 382.06644444 -3.36871148 317.32376328 -9.25 253.75 C-9.33290283 252.86958038 -9.41580566 251.98916077 -9.5012207 251.08206177 C-12.16683802 222.55828205 -12.24060225 194.06185347 -12.25 165.4375 C-12.25073643 164.41142136 -12.25147285 163.38534271 -12.2522316 162.32817078 C-12.2694685 132.84982289 -12.01746896 103.54903368 -9.20245361 74.18133545 C-8.93451541 71.29443658 -8.70385193 68.40514871 -8.4752655 65.51490784 C-6.74855151 43.70974917 -4.49416128 21.4374032 0 0 Z " fill="#1A9F79" transform="translate(90,949)"/>
<path d="M0 0 C3.17564046 1.18387713 5.87395487 2.43466223 8.609375 4.43359375 C9.27195313 4.91159424 9.93453125 5.38959473 10.6171875 5.88208008 C11.32101563 6.39536865 12.02484375 6.90865723 12.75 7.4375 C41.66729127 28.14106324 72.83070785 45.84698608 104.421875 62.11328125 C107.95165323 63.93093509 111.46185394 65.77744687 114.953125 67.66796875 C130.91925193 76.27785761 147.4238106 83.65801868 164 91 C164.92709778 91.41182526 164.92709778 91.41182526 165.8729248 91.83197021 C210.3803751 111.59576807 256.63244087 127.30239258 302.5625 143.375 C342.00853866 157.18261601 342.00853866 157.18261601 358.019104 163.24981689 C359.42521028 163.78232197 360.83179501 164.31356442 362.2387085 164.84393311 C436.0773218 192.68157083 515.30710288 228.19610432 562 295 C562.49902832 295.7027002 562.99805664 296.40540039 563.51220703 297.12939453 C581.54370488 322.65330059 595.80401742 351.49609018 603 382 C603.36587948 383.46679937 603.7344116 384.93293937 604.10546875 386.3984375 C604.78390965 389.07953764 605.44979091 391.76233468 606.10546875 394.44921875 C606.68874258 396.76448474 607.3246697 399.06730499 608.01953125 401.3515625 C609.20727556 405.77129631 609.87701173 410.15885451 610.5 414.6875 C610.67595703 415.89116211 610.67595703 415.89116211 610.85546875 417.11914062 C611.27178629 420.07589049 611.64100038 423.035707 612 426 C612.08471558 426.68057465 612.16943115 427.36114929 612.25671387 428.06234741 C613.85204845 441.15480484 614.31404648 454.10669636 614.26074219 467.2902832 C614.25002099 470.4313491 614.26071179 473.57184185 614.2734375 476.71289062 C614.29067936 497.2000331 612.10210191 517.06193054 608.75 537.25 C608.59626923 538.18532562 608.44253845 539.12065125 608.28414917 540.08432007 C605.83597902 554.91004244 602.89895756 569.48183895 599 584 C598.48655181 585.95239856 597.97315231 587.90481019 597.46092224 589.85752869 C591.93506779 610.90696076 591.93506779 610.90696076 589 621 C495.62483475 596.7312604 408.08883775 545.31797175 319 476 C317.22988493 474.56161564 315.45902478 473.1241478 313.6875 471.6875 C303.76437564 463.55958474 294.09623572 455.17766103 284.68359375 446.46484375 C282.3830635 444.35183852 280.05340817 442.28894966 277.6875 440.25 C274.6018994 437.5779335 271.73002665 434.75458288 268.87353516 431.84106445 C267.06930512 430.06810398 265.20801296 428.41998392 263.28515625 426.77734375 C258.99093258 423.04224835 254.94896936 419.09731448 250.9375 415.0625 C250.26912109 414.39798828 249.60074219 413.73347656 248.91210938 413.04882812 C245.00148683 409.13060476 241.30170306 405.09437414 237.68579102 400.90405273 C235.08702653 397.96882258 232.30239204 395.23899906 229.5 392.5 C224.78173348 387.82844238 220.2781011 383.08137324 216 378 C214.61990808 376.38810831 213.23662665 374.77897935 211.85351562 373.16967773 C210.29299758 371.35228734 208.73611467 369.53183192 207.1796875 367.7109375 C205.11029302 365.2917862 203.03222693 362.88061267 200.9453125 360.4765625 C194.57217036 353.12126865 188.44643251 345.61962822 182.4921875 337.921875 C180.88925215 335.85736141 179.27367942 333.80317524 177.65625 331.75 C165.56513667 316.36897125 154.11509162 300.75954233 144 284 C148.76545089 293.88149353 153.82141422 303.43905019 159.60986328 312.75878906 C161.18575464 315.29947798 162.74650996 317.84923742 164.30859375 320.3984375 C180.45444709 346.61583353 198.06113338 371.73267412 217 396 C217.66660645 396.85585693 217.66660645 396.85585693 218.34667969 397.72900391 C226.5375608 408.23843744 234.78897314 418.6432386 243.7734375 428.4921875 C245.97860757 430.97590536 248.05511004 433.52794705 250.125 436.125 C258.65828043 446.66083661 268.23643913 456.34343103 277.88671875 465.8515625 C279.79804477 467.79468507 281.56193666 469.78795368 283.3125 471.875 C286.94244235 476.12426901 291.03269328 479.81297552 295.16015625 483.56665039 C298.28863958 486.41290189 301.34703559 489.29429017 304.3125 492.3125 C307.37724242 495.42202989 310.56883917 498.31465999 313.87890625 501.16015625 C316.22491058 503.19508819 318.5173645 505.28290967 320.8125 507.375 C325.0544085 511.19914478 329.40551097 514.84889455 333.84765625 518.4375 C336.18859881 520.33020913 338.50249212 522.25250175 340.80859375 524.1875 C391.79421108 566.85498446 450.35791739 601.29528518 512 626 C512.9576123 626.38397949 513.91522461 626.76795898 514.90185547 627.16357422 C517.26726804 628.1106527 519.63327937 629.05619604 522 630 C522 630.33 522 630.66 522 631 C510.34218434 631.34497059 498.84892448 630.29395994 487.25 629.25 C485.7338208 629.11561523 485.7338208 629.11561523 484.18701172 628.97851562 C449.2285401 625.87011613 415.21591751 620.94459298 381 613 C380.07912598 612.78730469 379.15825195 612.57460937 378.20947266 612.35546875 C364.91188809 609.25428296 351.93635843 605.36160043 339 601 C338.0296582 600.67547852 337.05931641 600.35095703 336.05957031 600.01660156 C277.00503192 580.08738295 222.450937 547.49092384 174.81738281 507.51318359 C172.36584163 505.47198904 169.86846736 503.48962513 167.375 501.5 C162.19176952 497.27428232 157.32793624 492.73248863 152.47607422 488.13476562 C149.41888759 485.23926909 146.33357777 482.40578521 143.140625 479.66015625 C138.36048409 475.50622709 133.90309437 471.0494779 129.4375 466.5625 C128.62603516 465.75490234 127.81457031 464.94730469 126.97851562 464.11523438 C122.66791028 459.79767082 118.51270057 455.40607558 114.53491211 450.7800293 C112.43341083 448.34292959 110.24703768 445.98764474 108.0625 443.625 C103.47184336 438.58009547 99.19013866 433.37923207 95 428 C93.93789175 426.65594034 92.87535531 425.31221898 91.8125 423.96875 C61.56789067 385.59903789 37.91201108 343.4129369 20 298 C19.64035156 297.08847168 19.28070313 296.17694336 18.91015625 295.23779297 C13.89109467 282.38022708 9.87226593 269.24142423 6 256 C5.76539063 255.21270508 5.53078125 254.42541016 5.2890625 253.61425781 C1.4075947 240.57138439 -1.413085 227.35459865 -4 214 C-4.18449707 213.06027344 -4.36899414 212.12054687 -4.55908203 211.15234375 C-10.90174023 178.44423874 -12.2638386 145.53507236 -12.3125 112.3125 C-12.31379787 111.58287804 -12.31509575 110.85325607 -12.31643295 110.10152435 C-12.34857585 86.20956196 -11.63462312 62.6557795 -8 39 C-7.89627075 38.31909302 -7.7925415 37.63818604 -7.68566895 36.93664551 C-5.76493218 24.44705655 -3.50871028 12.14911577 0 0 Z " fill="#005C35" transform="translate(189,644)"/>
<path d="M0 0 C0.76945953 -0.00133942 1.53891907 -0.00267883 2.33169556 -0.00405884 C15.5116078 0.00089403 28.25088281 0.98975193 41.25 3.25 C42.65471386 3.47024799 44.0596497 3.68908669 45.46484375 3.90625 C86.78570096 10.84121904 127.12262828 29.4552067 159.25 56.25 C160.09739746 56.94512695 160.09739746 56.94512695 160.96191406 57.65429688 C174.28904488 68.60131475 186.74454792 80.53762045 197.25 94.25 C198.17949987 95.4272315 199.10920027 96.6043047 200.0390625 97.78125 C208.05696477 108.06397061 214.78005903 118.94316756 221.25 130.25 C221.81412598 131.21341309 221.81412598 131.21341309 222.38964844 132.19628906 C246.29423737 173.11466054 253.1464278 219.63575431 252.25 266.25 C252.24129883 267.02214844 252.23259766 267.79429687 252.22363281 268.58984375 C251.94524479 288.28819592 247.60158013 308.6424425 241.25 327.25 C240.9514209 328.15717773 240.6528418 329.06435547 240.34521484 329.99902344 C231.05987591 358.07950081 217.67140724 384.05392654 199.25 407.25 C198.569375 408.12269531 197.88875 408.99539063 197.1875 409.89453125 C169.88865946 444.168627 134.06742096 470.43152262 93.296875 486.44335938 C91.46100545 487.16684614 89.63594868 487.91763032 87.8125 488.671875 C64.22774459 498.22370094 37.83742728 503.28353223 12.43359375 503.48828125 C11.42745026 503.49812042 10.42130676 503.50795959 9.38467407 503.51809692 C-32.07275002 503.84041974 -32.07275002 503.84041974 -50.75 499.25 C-51.80010254 499.00330566 -52.85020508 498.75661133 -53.93212891 498.50244141 C-90.39011087 489.81333349 -124.09304855 474.20251686 -153.75 451.25 C-154.68972656 450.52425781 -155.62945313 449.79851562 -156.59765625 449.05078125 C-205.47273594 410.10907564 -238.39551193 353.1459636 -248.4375 291.5 C-248.55706055 290.7682959 -248.67662109 290.0365918 -248.79980469 289.28271484 C-258.74786316 224.18781051 -241.92356192 157.0596479 -203.25097656 103.95727539 C-189.85924201 85.93681021 -174.64055129 68.9052371 -156.75 55.25 C-155.57389253 54.32202788 -154.39813448 53.3936128 -153.22265625 52.46484375 C-109.82254351 18.61098798 -54.91852458 0.05671803 0 0 Z " fill="#005C35" transform="translate(706.75,247.75)"/>
<path d="M0 0 C0.33 0 0.66 0 1 0 C1.16933015 7.51219631 0.68363523 14.84592052 -0.125 22.3125 C-0.25406738 23.50601074 -0.38313477 24.69952148 -0.51611328 25.92919922 C-4.38780655 59.88330031 -10.96565225 93.53927002 -19.1875 126.68359375 C-19.91908594 129.66973058 -20.62464643 132.65978787 -21.3125 135.65625 C-25.65965975 154.58572149 -31.30954406 173.11615161 -37.24389648 191.60131836 C-37.79136834 193.33813172 -38.32566686 195.07911566 -38.85180664 196.82250977 C-41.67076997 206.16055335 -44.82418924 215.36359873 -48.0625 224.5625 C-48.34623474 225.36958405 -48.62996948 226.17666809 -48.92230225 227.00820923 C-54.25721154 242.15259406 -59.9242318 257.13510125 -66 272 C-66.41894531 273.02931641 -66.83789062 274.05863281 -67.26953125 275.11914062 C-81.99469648 311.11145626 -98.35941759 346.95447576 -117.70166016 380.71972656 C-119.16564162 383.29091628 -120.60504356 385.87508883 -122.04296875 388.4609375 C-128.89379188 400.74588525 -136.05851344 412.78508208 -143.55224609 424.68798828 C-144.81761322 426.70873477 -146.06477599 428.73856653 -147.30078125 430.77734375 C-159.89116926 451.45131719 -173.79708794 471.47954526 -188.35839844 490.80517578 C-190.0942224 493.12597552 -191.80360677 495.46448928 -193.5078125 497.80859375 C-200.06840637 506.82355587 -206.81370931 515.61614252 -213.90625 524.21875 C-216.90599444 527.86183116 -219.79971712 531.58054871 -222.6875 535.3125 C-226.75807159 540.55080444 -231.07149298 545.47778326 -235.58984375 550.33984375 C-238.06186068 553.06827735 -240.38065218 555.88107758 -242.6875 558.75 C-245.72045462 562.50787874 -248.84897438 565.97285775 -252.3203125 569.32421875 C-254.14377893 571.14344456 -255.82018279 573.04767911 -257.5 575 C-260.25305053 578.19550508 -263.14522249 581.17196374 -266.15586853 584.1231842 C-267.9404244 585.93936852 -269.60127261 587.81340459 -271.25610352 589.74780273 C-274.81694651 593.84137721 -278.5609191 597.70590554 -282.40234375 601.53515625 C-283.08373917 602.21750839 -283.76513458 602.89986053 -284.46717834 603.60289001 C-285.89705741 605.03344437 -287.32817911 606.46275767 -288.76049805 607.89086914 C-290.93197711 610.05699074 -293.09806325 612.22840174 -295.26367188 614.40039062 C-296.66374202 615.79979987 -298.06412238 617.19889884 -299.46484375 618.59765625 C-300.10155502 619.23639175 -300.7382663 619.87512726 -301.39427185 620.53321838 C-305.2177223 624.33715014 -309.15957913 627.94765256 -313.24034119 631.47392273 C-315.17359906 633.15055508 -317.04593526 634.87905562 -318.89453125 636.6484375 C-319.53438965 637.25671387 -320.17424805 637.86499023 -320.83349609 638.49169922 C-321.48656738 639.11318848 -322.13963867 639.73467773 -322.8125 640.375 C-328.21084835 645.47768573 -333.68243976 650.33048184 -339.4921875 654.9609375 C-342.07603034 657.06181906 -344.5399352 659.25586565 -347 661.5 C-351.19657095 665.3150645 -355.50777483 668.94264875 -359.91796875 672.5078125 C-362.13919369 674.30393609 -364.34900377 676.11008536 -366.55078125 677.9296875 C-376.35085742 686.00277302 -386.42566236 693.66002834 -396.62060547 701.22607422 C-398.8101561 702.85846442 -400.98791285 704.50483849 -403.16015625 706.16015625 C-413.20252183 713.8039352 -423.5250472 720.96351735 -434 728 C-435.24339531 728.83746343 -436.48671769 729.67503515 -437.72998047 730.51269531 C-454.29009294 741.66346971 -470.87238149 752.73226282 -488 763 C-488.85996582 763.51788086 -489.71993164 764.03576172 -490.60595703 764.56933594 C-512.41416265 777.67731154 -534.62558789 789.94613341 -557.26953125 801.5390625 C-561.99138439 803.9574605 -566.68279061 806.42247681 -571.35302734 808.9387207 C-595.3587391 821.82753324 -620.64127011 832.35757542 -645.65136719 843.11669922 C-648.50168145 844.34471555 -651.33934818 845.59658736 -654.16894531 846.87158203 C-655.13750961 847.30247887 -655.13750961 847.30247887 -656.12564087 847.74208069 C-657.85298272 848.51136882 -659.57631412 849.28964444 -661.29931641 850.06860352 C-664 851 -664 851 -667 850 C-666.21269501 849.51975121 -666.21269501 849.51975121 -665.40948486 849.02980042 C-652.56645673 841.17901523 -639.91123796 833.09245196 -627.40527344 824.71557617 C-624.7392563 822.93030559 -622.06912958 821.15131437 -619.3984375 819.37304688 C-608.47541378 812.0850731 -597.68488143 804.63241007 -587 797 C-586.09733398 796.35812744 -585.19466797 795.71625488 -584.26464844 795.05493164 C-573.99001068 787.73441839 -563.90195922 780.19173966 -553.91943359 772.47851562 C-552.16705468 771.12868012 -550.4079345 769.78850748 -548.64453125 768.453125 C-540.22427769 762.05164031 -532.07189817 755.35136938 -523.93164062 748.59960938 C-521.33791788 746.4517237 -518.73271667 744.31837705 -516.125 742.1875 C-515.27164062 741.48882813 -514.41828125 740.79015625 -513.5390625 740.0703125 C-511.78839756 738.64284724 -510.03288183 737.22131746 -508.2734375 735.8046875 C-502.57495633 731.19774638 -497.1157882 726.40947251 -491.7265625 721.4453125 C-489.1738379 719.1559062 -486.55902146 717.00762128 -483.875 714.875 C-476.74600953 709.11696924 -470.19488108 702.74642509 -463.56835938 696.42480469 C-461.68468304 694.64641368 -459.79174252 692.88290432 -457.88476562 691.12988281 C-447.28107085 681.3606462 -437.06287177 671.21775009 -426.88134766 661.01171875 C-424.46344387 658.58806172 -422.04099651 656.16900305 -419.61724854 653.75119209 C-417.26322122 651.40167245 -414.91303721 649.0483238 -412.5625 646.6953125 C-411.7051123 645.83994904 -410.84772461 644.98458557 -409.96435547 644.103302 C-405.66060611 639.78284455 -401.49370828 635.40372278 -397.52999878 630.76811218 C-394.82972126 627.64759101 -391.96327862 624.68195566 -389.125 621.6875 C-384.2360114 616.4937567 -379.5974669 611.18977766 -375.14453125 605.61328125 C-372.83243208 602.79580521 -370.40746435 600.11735509 -367.9375 597.4375 C-364.19791978 593.36525773 -360.67180976 589.20244097 -357.2578125 584.85546875 C-354.95811122 581.94702302 -352.61649329 579.07676926 -350.26708984 576.20849609 C-344.78525265 569.50812391 -339.42729394 562.74631047 -334.30175781 555.76708984 C-332.74799729 553.6579153 -331.18242632 551.55770102 -329.6171875 549.45703125 C-323.85621265 541.70709333 -318.16740715 533.9543155 -312.88671875 525.8671875 C-310.64315442 522.45771293 -308.32844615 519.10183395 -306 515.75 C-305.60127686 515.17588379 -305.20255371 514.60176758 -304.79174805 514.01025391 C-303.86201952 512.67290839 -302.93114226 511.33636158 -302 510 C-305.63854976 512.73049982 -308.40056273 515.53806009 -311.1875 519.125 C-315.07441554 523.98202758 -319.23796228 528.34367689 -323.68359375 532.6875 C-325.62659141 534.6272211 -327.42037379 536.59044997 -329.1875 538.6875 C-333.36363084 543.5846894 -337.99189172 548.04180224 -342.58276367 552.5456543 C-345.3641773 555.28977684 -347.99077036 557.98866072 -350.4609375 561.0234375 C-353.02704532 564.03170544 -355.74115356 566.43757011 -358.73828125 568.99609375 C-363.19858791 572.94797167 -367.31804817 577.25804886 -371.5 581.5 C-376.89025527 586.96759035 -382.26725932 592.35522536 -388.10107422 597.35058594 C-391.43920033 600.25009481 -394.61010535 603.32747072 -397.8125 606.375 C-403.21084835 611.47768573 -408.68243976 616.33048184 -414.4921875 620.9609375 C-417.07603034 623.06181906 -419.5399352 625.25586565 -422 627.5 C-426.22364277 631.34510875 -430.5869793 634.96758171 -435.02734375 638.55859375 C-438.33751811 641.2771995 -441.57485499 644.07095217 -444.8125 646.875 C-451.14383169 652.33997541 -457.65720665 657.53254863 -464.26757812 662.65429688 C-466.53517334 664.41570961 -468.79059006 666.19231673 -471.0456543 667.96972656 C-473.38842711 669.81548655 -475.73533388 671.65595034 -478.08251953 673.49609375 C-479.40963705 674.53697024 -480.73609089 675.57869328 -482.06201172 676.62109375 C-493.54484435 685.64276131 -505.19338273 694.40687238 -517 703 C-517.74749512 703.5451123 -518.49499023 704.09022461 -519.26513672 704.65185547 C-530.19658926 712.61657543 -541.2385442 720.41632722 -552.33886719 728.14355469 C-555.08713052 730.06078353 -557.829108 731.98675708 -560.5703125 733.9140625 C-580.15335576 747.65434555 -600.23229846 760.5861874 -620.44335938 773.37841797 C-622.81522755 774.88280571 -625.18191438 776.39494114 -627.546875 777.91015625 C-649.96961644 792.23654993 -672.95876002 805.69847394 -696 819 C-696.86818359 819.50160645 -697.73636719 820.00321289 -698.63085938 820.52001953 C-718.437426 831.94601725 -738.36043023 843.17456141 -758.67871094 853.66772461 C-764.88052153 856.87498636 -771.01386677 860.18624097 -777.125 863.5625 C-786.72697591 868.83677362 -796.41592363 873.94288376 -806.13983154 878.98825073 C-807.83455676 879.86914975 -809.52748371 880.75351728 -811.21856689 881.64138794 C-813.60295505 882.89193111 -815.99377221 884.12921165 -818.38671875 885.36328125 C-819.1107338 885.74595154 -819.83474884 886.12862183 -820.58070374 886.52288818 C-822.34975022 887.42591554 -824.17210071 888.22297486 -826 889 C-826.99 888.67 -827.98 888.34 -829 888 C-835.24977904 871.42072504 -835.47880584 851.51818618 -835.33618164 834.08203125 C-835.31251796 831.00233734 -835.31566194 827.92351261 -835.32226562 824.84375 C-835.29957684 807.74749827 -834.34669921 790.83246562 -830.5 774.125 C-830.24500732 773.00697998 -829.99001465 771.88895996 -829.72729492 770.73706055 C-814.15508821 705.34102893 -774.52223892 644.36905846 -723.25390625 600.9140625 C-721.40746436 599.34602693 -719.58909956 597.75600059 -717.77734375 596.1484375 C-698.51786875 579.12807431 -677.56350991 563.96544935 -656 550 C-655.31454102 549.55366211 -654.62908203 549.10732422 -653.92285156 548.64746094 C-603.08960211 515.65285292 -547.9481797 489.34201655 -493 464 C-492.2914386 463.6730011 -491.5828772 463.3460022 -490.85284424 463.00909424 C-476.44614098 456.36097414 -462.03473992 449.72261117 -447.578125 443.18359375 C-428.5962084 434.59621687 -409.72103839 425.80331626 -390.90625 416.85546875 C-387.63903323 415.30216304 -384.36739392 413.75847235 -381.09375 412.21875 C-345.23288336 395.29575592 -310.12996006 377.19004244 -276 357 C-275.08879395 356.46310547 -274.17758789 355.92621094 -273.23876953 355.37304688 C-262.26325951 348.89964173 -251.51096072 342.20282973 -241 335 C-239.67064027 334.09495315 -238.34121139 333.19000785 -237.01171875 332.28515625 C-232.99379216 329.54351222 -228.99296482 326.77784762 -225 324 C-224.41395996 323.59313965 -223.82791992 323.1862793 -223.22412109 322.76708984 C-208.98609734 312.84878587 -195.3196094 302.11621649 -182 291 C-180.50146484 289.7625 -180.50146484 289.7625 -178.97265625 288.5 C-171.57296131 282.34944242 -164.50880153 275.89216129 -157.51171875 269.2890625 C-154.60174814 266.54741142 -151.63030079 263.88720968 -148.625 261.25 C-144.5320743 257.59608448 -140.90537456 253.66403108 -137.2890625 249.54296875 C-134.90174133 246.89084233 -132.41518729 244.38065302 -129.875 241.875 C-125.70110299 237.73957208 -121.79504309 233.48221139 -118 229 C-117.16726563 228.03320312 -116.33453125 227.06640625 -115.4765625 226.0703125 C-85.5974271 191.26534418 -60.86308631 152.10154465 -40.90185547 110.85693359 C-39.99949887 108.99896816 -39.08018246 107.15004848 -38.16015625 105.30078125 C-21.73169684 71.820158 -9.92959693 35.86783215 0 0 Z " fill="#C8E200" transform="translate(2139,1235)"/>
<path d="M0 0 C1.65838139 11.23137578 2.32201932 22.20503547 2.3359375 33.55078125 C2.3440608 35.20442394 2.35258007 36.85806472 2.36146545 38.51170349 C2.38436415 43.7786813 2.38157673 49.04548852 2.375 54.3125 C2.3744203 55.65892326 2.3744203 55.65892326 2.37382889 57.032547 C2.3588932 84.5398691 1.90478 111.72512833 -2 139 C-2.12586487 139.89732849 -2.25172974 140.79465698 -2.38140869 141.71917725 C-6.52987633 171.22115709 -11.46992847 200.59201148 -20.14282227 229.14233398 C-21.01970323 232.0656868 -21.86543645 234.99743095 -22.7116394 237.92977905 C-25.36197296 247.06845875 -28.2738056 256.08907871 -31.4375 265.0625 C-31.68989441 265.78012512 -31.94228882 266.49775024 -32.20233154 267.23712158 C-49.5457703 316.27222962 -74.62680506 362.2574333 -107 403 C-107.5067627 403.63824707 -108.01352539 404.27649414 -108.53564453 404.93408203 C-114.66520176 412.62596704 -120.8821461 420.17375411 -127.5859375 427.375 C-129.44689809 429.39856879 -131.23811876 431.44677749 -133.0234375 433.53515625 C-137.65418445 438.84290572 -142.62636576 443.81240958 -147.60498047 448.7902832 C-149.23827448 450.42575882 -150.8633847 452.06907708 -152.48828125 453.71289062 C-158.28873598 459.54366419 -164.18139181 465.00050474 -170.63916016 470.10668945 C-172.88705967 471.90942582 -175.01217463 473.79197137 -177.125 475.75 C-188.84403701 486.25744316 -201.91421808 495.29443918 -215 504 C-215.84280518 504.56315918 -215.84280518 504.56315918 -216.70263672 505.13769531 C-258.02709758 532.62160456 -317.94451875 568 -369 568 C-368.47461321 561.76133363 -367.6427898 555.73881542 -366.3125 549.625 C-364.48935678 540.84411201 -362.93022162 532.0252352 -361.45336914 523.18081665 C-361.06038531 520.86252503 -360.6496503 518.54789803 -360.23632812 516.2331543 C-358.85039829 508.30638844 -357.82812105 500.54555216 -357.453125 492.50390625 C-356.25162222 471.13352617 -356.25162222 471.13352617 -350.60693359 465.69384766 C-344.1690993 461.77925522 -337.07538903 460.01453148 -329.83740234 458.13330078 C-323.31460985 456.3250776 -317.34611435 453.19951098 -311.3125 450.1875 C-310.08922753 449.58878516 -308.86567618 448.9906398 -307.6418457 448.39306641 C-276.93263683 433.29015152 -248.20360247 413.97598637 -222 392 C-221.01 391.18402344 -220.02 390.36804687 -219 389.52734375 C-203.0042227 376.26775147 -187.45016597 361.85998737 -174 346 C-173.154375 345.04351563 -172.30875 344.08703125 -171.4375 343.1015625 C-159.43457574 329.46447565 -146.16565346 314.33130692 -138 298 C-139.04957886 299.06528931 -139.04957886 299.06528931 -140.12036133 300.15209961 C-142.76717804 302.83565976 -145.42105498 305.51214901 -148.0769043 308.18676758 C-149.21615178 309.33595082 -150.35358441 310.48693666 -151.48901367 311.63989258 C-157.95146784 318.19944062 -164.44746238 324.43730339 -171.67895508 330.15478516 C-173.81295803 331.85130291 -175.852457 333.61066877 -177.875 335.4375 C-198.64851959 353.73498392 -222.70750194 368.86992607 -247 382 C-247.81855469 382.44811035 -248.63710938 382.8962207 -249.48046875 383.35791016 C-318.47185914 421 -318.47185914 421 -349 421 C-348.9278125 419.86949219 -348.855625 418.73898437 -348.78125 417.57421875 C-345.82050209 367.78316871 -351.58418454 320.11014791 -374 275 C-374.65307129 273.6694458 -374.65307129 273.6694458 -375.31933594 272.31201172 C-384.11472195 254.51901222 -394.07185638 238.09152249 -407 223 C-408.33899548 221.33787887 -409.6738988 219.67242673 -411 218 C-409.4553404 214.01882376 -406.71057363 211.71279705 -403.5 209.0625 C-402.64656006 208.35178345 -402.64656006 208.35178345 -401.77587891 207.62670898 C-378.83523943 188.80730736 -352.87950428 172.8883918 -326.15771484 160.04199219 C-323.81273031 158.90956472 -321.47889961 157.75570424 -319.14453125 156.6015625 C-293.87601734 144.2110803 -267.25706474 134.94727457 -240.25 127.125 C-184.60682793 110.86909245 -130.56595199 85.88145683 -81 56 C-80.08492676 55.44957031 -79.16985352 54.89914062 -78.22705078 54.33203125 C-55.215725 40.43528654 -33.0528967 25.12650241 -12.01171875 8.390625 C-1.44117647 0 -1.44117647 0 0 0 Z " fill="#005C35" transform="translate(1209,675)"/>
<path d="M0 0 C-2.05440457 15.46845792 -6.41363941 30.27212369 -11.09790039 45.1184082 C-12.05226893 48.16696353 -12.97650758 51.22391875 -13.90234375 54.28125 C-30.37327184 107.81769678 -54.5955021 163.21192336 -90 207 C-91.08577425 208.41479675 -92.16925653 209.83135659 -93.25 211.25 C-94.4972092 212.83553261 -95.7476811 214.41850013 -97 216 C-97.43135254 216.5554248 -97.86270508 217.11084961 -98.30712891 217.68310547 C-105.75968771 227.2407944 -113.79671031 236.07654533 -122.375 244.625 C-123.3019165 245.54885498 -124.22883301 246.47270996 -125.18383789 247.42456055 C-130.30527636 252.47506624 -135.54611606 257.31323868 -141 262 C-142.62847017 263.47534536 -144.25401517 264.9539343 -145.875 266.4375 C-149.97794964 270.13893774 -154.19421891 273.64069085 -158.53515625 277.05859375 C-160.09526932 278.28739913 -161.64607915 279.52818993 -163.18359375 280.78515625 C-177.69990343 292.63469154 -192.94200381 303.35364977 -209 313 C-209.81662109 313.49209961 -210.63324219 313.98419922 -211.47460938 314.49121094 C-221.7056069 320.60990479 -232.13755111 326.19532086 -242.875 331.375 C-243.86000488 331.85066406 -244.84500977 332.32632812 -245.85986328 332.81640625 C-258.87933006 338.98181781 -272.27819511 343.96799056 -285.9375 348.5 C-287.00674713 348.85567551 -287.00674713 348.85567551 -288.09759521 349.21853638 C-307.44764473 355.62792752 -326.85202746 360.24196995 -346.9765625 363.48193359 C-349.86230632 363.97640617 -352.733041 364.52948626 -355.60571289 365.09431458 C-364.69909224 366.86844982 -373.78974095 368.03033998 -383 369 C-384.55617814 369.16805557 -386.11233002 369.33635444 -387.66845703 369.50488281 C-398.39681445 370.65754694 -409.13335916 371.72901732 -419.875 372.75 C-420.89110352 372.84740479 -420.89110352 372.84740479 -421.92773438 372.94677734 C-423.84473181 373.12937088 -425.76220223 373.30697771 -427.6796875 373.484375 C-428.75976074 373.58459961 -429.83983398 373.68482422 -430.95263672 373.78808594 C-433.97941757 373.99856869 -436.96699763 374.03752168 -440 374 C-436.72056689 371.81371126 -433.49545554 370.7420258 -429.78125 369.56640625 C-428.29026779 369.08404649 -426.79947146 368.60111187 -425.30883789 368.11767578 C-424.52493683 367.86471741 -423.74103577 367.61175903 -422.93338013 367.35113525 C-395.9680627 358.61193347 -370.32072132 347.70694035 -345 335 C-344.01209473 334.50467773 -343.02418945 334.00935547 -342.00634766 333.49902344 C-307.77781628 316.22057065 -276.49123984 294.4255009 -247 270 C-246.00097656 269.17757813 -245.00195312 268.35515625 -243.97265625 267.5078125 C-231.52071122 257.17692077 -219.89785935 245.97327296 -208.4375 234.5625 C-207.69991455 233.8295874 -206.9623291 233.0966748 -206.20239258 232.34155273 C-201.59691908 227.72244271 -197.25247366 222.94366618 -193 218 C-191.96667809 216.83170834 -190.93156734 215.66499602 -189.89453125 214.5 C-178.29521778 201.37147471 -168.09751706 187.29736928 -158 173 C-161.83843303 175.95079266 -165.28651079 179.16729984 -168.67578125 182.61328125 C-169.20463425 183.14592087 -169.73348724 183.67856049 -170.27836609 184.2273407 C-172.51943252 186.48458499 -174.75452751 188.74770613 -176.98999023 191.01049805 C-188.27680683 202.42314683 -188.27680683 202.42314683 -194.34741211 207.5925293 C-196.67339994 209.57351908 -198.8907779 211.66664177 -201.125 213.75 C-205.82415799 218.03968779 -210.70495809 222.00037227 -215.73681641 225.89135742 C-219.57211264 228.86012981 -223.30504087 231.9185867 -227 235.0625 C-232.84966363 239.9734245 -238.97160671 244.37972521 -245.2265625 248.75 C-246.9763061 249.98329946 -248.70898529 251.2371582 -250.4375 252.5 C-258.28051417 258.21874803 -266.31878706 263.49725745 -274.61181641 268.53955078 C-277.23496151 270.14368634 -279.84140111 271.77341897 -282.44921875 273.40234375 C-317.17290553 294.88705233 -354.39038996 310.91819537 -393 324 C-393.88913086 324.30631348 -394.77826172 324.61262695 -395.69433594 324.92822266 C-421.07889772 333.64005302 -447.48583786 338.94108868 -473.8359375 343.75 C-474.5333606 343.87770279 -475.23078369 344.00540558 -475.94934082 344.13697815 C-480.7562137 345 -480.7562137 345 -483 345 C-482.19110766 327.31609408 -480.37284919 309.85747813 -478.0625 292.3125 C-477.93534607 291.34052673 -477.80819214 290.36855347 -477.67718506 289.36712646 C-469.89724259 230.22135771 -454.78026124 169.94604542 -416 123 C-415.525625 122.42411133 -415.05125 121.84822266 -414.5625 121.25488281 C-404.97352593 109.68693428 -394.83777008 99.30682601 -383 90 C-382.03707031 89.22011719 -381.07414062 88.44023438 -380.08203125 87.63671875 C-340.47187501 56.1594463 -290.87434277 37.70494204 -240.9375 31.6875 C-240.26488129 31.60609772 -239.59226257 31.52469543 -238.89926147 31.44082642 C-221.02626886 29.31932741 -203.14423348 28.82746209 -185.16870117 28.35400391 C-146.51055943 27.35914561 -146.51055943 27.35914561 -108 24 C-106.79988281 23.85836426 -105.59976562 23.71672852 -104.36328125 23.57080078 C-71.80568898 19.58909524 -39.57212202 12.75853055 -8.52099609 2.15332031 C-7.30984131 1.74098145 -7.30984131 1.74098145 -6.07421875 1.3203125 C-5.34162842 1.06781738 -4.60903809 0.81532227 -3.85424805 0.55517578 C-2 0 -2 0 0 0 Z " fill="#005C35" transform="translate(1834,1307)"/>
<path d="M0 0 C0.95003906 0.10957031 1.90007812 0.21914063 2.87890625 0.33203125 C42.5884519 5.35785692 82.15725593 32.14698628 106.65234375 62.90625 C118.68258505 78.75974603 128.13370124 95.30254029 135 114 C135.36738281 114.94488281 135.73476562 115.88976563 136.11328125 116.86328125 C142.43170544 134.11087161 144.2144571 152.77427957 144.1875 171 C144.18709213 172.0326297 144.18709213 172.0326297 144.18667603 173.08612061 C144.10769865 216.54136669 128.62777364 258.82936093 98.3828125 290.49609375 C96.4728555 292.50311414 94.72409154 294.52499662 93 296.6875 C88.93800363 301.46293482 83.93572708 305.17603323 79 309 C78.45730469 309.42829102 77.91460938 309.85658203 77.35546875 310.29785156 C42.19141283 337.92386561 -3.6316024 351.32342573 -48.171875 346.3984375 C-94.38357492 340.50184144 -137.38814364 318.9802049 -166.69140625 282.05078125 C-180.00351712 264.45897315 -190.20126585 246.03399901 -197 225 C-197.36134033 223.88890869 -197.36134033 223.88890869 -197.72998047 222.75537109 C-207.95496274 190.60450734 -208.41309925 154.19236107 -198 122 C-197.79004395 121.33484375 -197.58008789 120.6696875 -197.36376953 119.984375 C-191.1310314 100.43068676 -181.50449639 82.27943869 -169 66 C-168.03707031 64.72769531 -168.03707031 64.72769531 -167.0546875 63.4296875 C-149.46149441 41.02010694 -126.89281729 23.79602254 -101 12 C-99.61361328 11.35998047 -99.61361328 11.35998047 -98.19921875 10.70703125 C-67.81587792 -2.65506046 -32.55462969 -5.56388217 0 0 Z " fill="#005C35" transform="translate(1477,976)"/>
<path d="M0 0 C4.1866809 3.11948773 8.34184944 6.26673124 12.44897461 9.49047852 C25.84331658 19.94613145 40.14334463 28.77642393 55 37 C56.11608643 37.61858887 57.23217285 38.23717773 58.38208008 38.87451172 C67.275437 43.74370145 76.33812946 47.96186295 85.6875 51.875 C86.39189209 52.17203827 87.09628418 52.46907654 87.82202148 52.77511597 C112.13663659 63.01089238 136.87847819 71.18990394 162.41210938 77.76611328 C168.40247769 79.30947894 174.3632563 80.93075743 180.3125 82.625 C186.13081901 84.27674785 191.95866999 85.68428088 197.875 86.9375 C232.00162304 94.27264306 268.10934209 107.75104809 295.08203125 130.40625 C297.11636633 132.15350989 297.11636633 132.15350989 300 134 C299.36096345 137.18350676 298.24208662 139.54083792 296.55859375 142.30859375 C296.06182129 143.13045166 295.56504883 143.95230957 295.05322266 144.79907227 C294.52003418 145.66975342 293.9868457 146.54043457 293.4375 147.4375 C292.61451416 148.79862915 292.61451416 148.79862915 291.77490234 150.18725586 C288.9490612 154.85118086 286.06221977 159.46789479 283.125 164.0625 C269.07488214 186.86467045 257.97064263 211.5091503 249.5 236.875 C249.28581421 237.51579498 249.07162842 238.15658997 248.85095215 238.81680298 C246.52170459 245.83244691 244.53455078 252.77226582 243 260 C242 261 242 261 240.3125 261.0546875 C215.98361945 259.16426773 192.50584548 245.87761306 173 232 C171.92878906 231.24074219 170.85757812 230.48148438 169.75390625 229.69921875 C162.19703504 224.16668495 155.086362 218.11484463 148 212 C149.98955279 214.67460027 151.99277806 217.33863876 154 220 C154.495 220.66257812 154.99 221.32515625 155.5 222.0078125 C168.18870952 238.69346552 182.50974374 254.03984351 199 267 C200.64710666 268.37347443 202.29289202 269.74853462 203.9375 271.125 C213.27992264 278.78116295 222.94849602 286.29899735 233 293 C232.33277444 298.8837163 231.34363433 304.63225353 230.1875 310.4375 C228.60643345 318.56181704 227.18227674 326.70218709 225.875 334.875 C225.71668701 335.85911865 225.55837402 336.8432373 225.39526367 337.85717773 C224.91421951 340.90261356 224.45205862 343.95012681 224 347 C223.82774902 348.16055908 223.65549805 349.32111816 223.47802734 350.5168457 C222.16369418 359.81560002 221.41860774 369.07080588 220.875 378.4375 C220.78825253 379.86266025 220.70101483 381.28779074 220.61328125 382.71289062 C220.40323792 386.14160494 220.19970468 389.57066607 220 393 C194.23525157 382.36294911 170.08639224 368.12069387 148.59765625 350.32128906 C147.02423056 349.02003909 145.43474307 347.74060662 143.84375 346.4609375 C135.84950587 339.91855203 128.50556704 332.71536832 121.1875 325.4375 C120.69935822 324.95462524 120.21121643 324.47175049 119.70828247 323.97424316 C113.00819409 317.33012867 106.86976454 310.38920377 101 303 C99.99953984 301.79140989 98.99610352 300.58527034 97.98828125 299.3828125 C85.84739938 284.69028014 75.39888883 268.56836123 66 252 C65.52240234 251.16227051 65.04480469 250.32454102 64.55273438 249.46142578 C42.43558038 210.39834526 26.74672165 167.55423456 16 124 C15.68603271 122.72938721 15.68603271 122.72938721 15.36572266 121.43310547 C7.78468313 90.10010863 4.00735327 58.04246338 1 26 C0.89324951 24.93257568 0.78649902 23.86515137 0.67651367 22.76538086 C0.15287057 17.4181527 -0.11179654 12.1858227 -0.0625 6.8125 C-0.05347656 5.51957031 -0.04445313 4.22664063 -0.03515625 2.89453125 C-0.02355469 1.93933594 -0.01195312 0.98414063 0 0 Z " fill="#005C35" transform="translate(1083,1259)"/>
<path d="M0 0 C0 3.54275774 -0.8144815 4.65443136 -2.75 7.5625 C-3.26046875 8.34753906 -3.7709375 9.13257813 -4.296875 9.94140625 C-6.10620224 12.12836831 -7.42419082 12.89970356 -10 14 C-10.99 14.66 -11.98 15.32 -13 16 C-11.3383196 11.87582937 -8.37661982 8.93445961 -5.375 5.75 C-4.859375 5.19570312 -4.34375 4.64140625 -3.8125 4.0703125 C-2.54574965 2.7097288 -1.27342185 1.35434163 0 0 Z " fill="#F6FAD7" transform="translate(1837,1743)"/>
<path d="M0 0 C2.98162648 2.68064211 4.99718996 5.84817485 7.1875 9.1875 C7.90292969 10.27417969 8.61835938 11.36085938 9.35546875 12.48046875 C9.89816406 13.31191406 10.44085938 14.14335938 11 15 C10.01 15.66 9.02 16.32 8 17 C6.66161267 14.54429825 5.32913768 12.08570084 4 9.625 C3.6184375 8.92632813 3.236875 8.22765625 2.84375 7.5078125 C0 2.2265625 0 2.2265625 0 0 Z " fill="#C9DCD4" transform="translate(332,927)"/>
<path d="M0 0 C0.33 0.99 0.66 1.98 1 3 C0.236875 3.45375 -0.52625 3.9075 -1.3125 4.375 C-3.23632814 5.53824492 -5.12941224 6.7529415 -7 8 C-5.50902342 4.2047869 -3.24299151 2.38957269 0 0 Z " fill="#F9FCE4" transform="translate(1831,1751)"/>
<path d="M0 0 C0.33 0 0.66 0 1 0 C1 3.3 1 6.6 1 10 C0.01 10 -0.98 10 -2 10 C-1.54177532 6.53058454 -1.10868317 3.32604951 0 0 Z " fill="#D0E625" transform="translate(2139,1235)"/>
</svg>
